<svg version="1" xmlns="http://www.w3.org/2000/svg" width="733.333" height="733.333" viewBox="0 0 550.000000 550.000000"><path d="M33 84.3c-7.8 2.3-11.8 4.8-17.4 10.8-7.9 8.5-9.9 14.4-9.4 27.9.4 9.4.7 11.1 3.5 16.5 4 7.7 11.2 14.7 18.8 18.1 5.1 2.4 7.4 2.8 15 2.8 8.5.1 9.6-.1 16.7-3.7 8.7-4.3 14.2-9.8 18.5-18.6 2.5-5.1 2.8-6.6 2.8-16.6 0-10.4-.2-11.4-3.2-17.5-3.9-8-8.8-12.8-17.2-17-5.4-2.8-7.7-3.3-15-3.6-5.2-.2-10.4.1-13.1.9zM420.8 119.3c-10 3.8-17.8 10.6-21.9 19.4-2.1 4.4-2.4 6.6-2.9 25.3l-.5 20.4-4.1.7c-10.3 1.8-19.9 9.7-25 20.4-2.3 4.9-2.6 6.5-2.2 12.8 1 16.2 10.2 27.7 25.2 31.7l6.1 1.6.6 66.9c.6 74.1.5 73.5 7.7 93.1 8 22.1 24.4 40.1 44 48.4 14 6 22.1 7.4 40.7 7.5 14.9 0 18-.3 25-2.3 14.9-4.3 24.4-11.3 28.8-21 2.8-6.4 2.2-21.8-1.2-28.2-3.3-6.5-7.5-10.5-14.5-13.6-5.6-2.5-7.4-2.8-22.1-3.4-13.2-.5-16.8-.9-20.5-2.6-6-2.8-12.2-9.7-15.1-17l-2.4-5.9v-121l19.5-.5c23-.6 25.6-1.4 34.9-10.7 16.2-16.2 12.5-41.7-7.5-51.8-5.8-3-6.1-3-26.4-3.5l-20.5-.5-.5-20.5c-.4-13.9-1-21.6-2-24-3.4-8.8-9.3-15.1-18.2-19.6-6.4-3.2-19.1-4.3-25-2.1zM33.2 173.8c-10 3.6-18 12.4-20.7 22.7-1.8 7.1-2 27.2-.4 42.5 7.1 67.7 28.5 120.1 64.7 158.1 21 22.1 41.6 36.7 68.9 48.8 35.3 15.8 72.3 22.9 113 21.8 16.7-.4 21.4-.9 29.9-3 24.4-6.2 40.7-14.9 54-28.9 9.1-9.6 12.9-15.2 17.1-25.2 9.1-21.4 9.7-47.2 1.5-67.5-3-7.6-12.1-20-18.9-25.6-15.6-13.1-36.7-21.7-71.3-29.1-45.4-9.6-54-14.2-54-28.9 0-6.7 1.6-10.2 7-14.7 6.5-5.6 13.9-7.3 31-7.2 16.3.2 23.8 1.7 38.8 8 18.4 7.7 22 8.7 30.7 8.2 10.7-.6 17.1-3.5 23.5-10.5 3.9-4.2 5.5-7 7.1-12.5 8.4-27.5-16.1-48.3-67.1-56.8-14.2-2.4-44.1-2.7-57.1-.6-24.8 4-44.1 12.9-58.8 27-18 17.4-25.9 37.9-24.8 64.5.7 19.7 6.2 33.6 18.4 47.1 17.1 18.8 41 29.2 92.3 39.9 18.5 3.9 27.1 7.4 32.7 13.3 4 4.2 5.3 7.6 5.3 13.9 0 5.2-2.4 11.1-5.6 14.1-4 3.5-13 7.1-21.8 8.6-14.7 2.5-46.3-.4-69.2-6.4-25.3-6.5-50.1-19.8-67.7-36.3-25-23.4-44.1-61.3-51.2-101.6-2.1-12.2-4.5-37.9-4.5-49.1 0-11.5-1.9-18-7.3-24.6-8.4-10.3-23.1-14.4-35.5-10z"/></svg>